<?xml version="1.0" encoding="utf-8"?>
<!-- Generator: Adobe Illustrator 22.1.0, SVG Export Plug-In . SVG Version: 6.00 Build 0)  -->
<svg version="1.1" id="Capa_1" xmlns="http://www.w3.org/2000/svg" xmlns:xlink="http://www.w3.org/1999/xlink" x="0px" y="0px"
	 viewBox="0 0 1080 1080" style="enable-background:new 0 0 1080 1080;" xml:space="preserve">
<style type="text/css">
	.st0{fill:#F6F6F6;}
	.st1{fill:#EB7D00;}
</style>
<g>
	<path class="st0" d="M541,940c131,0,262,0,392.9,0c1,0,2-0.1,3,0c3,0.4,4-0.6,3.9-3.8c-0.2-12.8,0.1-25.7-0.2-38.5
		c-0.4-19.3-3.4-38.1-9-56.6c-13.7-44.6-38.8-82.4-71.4-115.2c-62-62.6-137-102.7-221.8-124.9c-54.3-14.2-109.1-16.9-164.4-6.7
		c-54,10-104.9,28.8-152.6,55.8c-48,27.2-90.7,60.8-124.9,104.5c-25.8,32.8-44.3,69.1-52.1,110.5c-4.3,22.8-3.1,45.8-3.5,68.8
		c-0.1,4.9,0.9,6.2,6.1,6.2C278.4,940,409.7,940,541,940z M543.2,566.9c48.2-0.6,98.2-18.3,141.4-54.5
		c78.9-66,101.9-179.2,54.7-270.2c-50.9-98.2-165-145.6-272-113.2c-119,36.1-186.3,159.4-151.3,277.2
		C344.2,501.1,434.1,566.9,543.2,566.9z"/>
	<path class="st1" d="M541,940c-131.3,0-262.6,0-393.9,0.1c-5.2,0-6.2-1.3-6.1-6.2c0.4-23-0.8-46,3.5-68.8
		c7.8-41.4,26.3-77.7,52.1-110.5c34.2-43.6,76.9-77.3,124.9-104.5c47.8-27,98.6-45.8,152.6-55.8c55.3-10.2,110.1-7.5,164.4,6.7
		c84.8,22.2,159.8,62.3,221.8,124.9c32.5,32.9,57.6,70.6,71.4,115.2c5.7,18.4,8.6,37.3,9,56.6c0.3,12.8,0,25.7,0.2,38.5
		c0.1,3.2-0.9,4.2-3.9,3.8c-1-0.1-2,0-3,0C803,940,672,940,541,940z"/>
	<path class="st1" d="M543.2,566.9c-109.1,0-199-65.9-227.2-160.7c-35-117.8,32.4-241.1,151.3-277.2c107-32.5,221.1,15,272,113.2
		c47.2,91,24.2,204.2-54.7,270.2C641.4,548.6,591.4,566.3,543.2,566.9z"/>
</g>
</svg>
